<svg width="34" height="53" viewBox="0 0 34 53" fill="none" xmlns="http://www.w3.org/2000/svg">
<g clip-path="url(#clip0_1609_4)">
<path d="M16.9943 53.0007H7.42093C6.88809 53.0009 6.36741 52.8409 5.92601 52.5414C2.841 50.4524 -7.94943 41.1183 10.6048 22.1484H17V53.0007" fill="white"/>
<path d="M17.0048 53.0007H26.5829C27.1158 53.0009 27.6365 52.8409 28.0779 52.5414C31.1629 50.4524 41.9524 41.1183 23.399 22.1484H17.0039V53.0007" fill="white"/>
<path d="M22.583 9.27961C23.4006 8.67655 24.3059 8.39298 25.3251 8.53004C25.8507 10.0689 26.9566 10.9413 28.509 11.2617C29.3879 11.4432 29.2551 11.2929 29.2626 12.1503C29.2701 12.6682 29.2409 13.19 29.2711 13.7042C29.2946 14.1182 29.1203 14.225 28.7464 14.1863C27.2091 14.0265 25.8262 13.4896 24.6629 12.4593C23.6879 11.5916 22.9372 10.5632 22.583 9.27961Z" fill="#007A9A"/>
<path d="M17.0977 0H14.4837C12.5382 0 10.6725 0.775478 9.29687 2.15584C7.92125 3.53619 7.14844 5.40835 7.14844 7.36047V12.2341H12.8474V14.5026H17.0863V12.2341H17.0995L17.0977 0Z" fill="#B6E4F1"/>
<path d="M17.0028 0H24.2354V9.58743L21.335 11.4675V14.5026H17L17.0028 0Z" fill="#80CDE4"/>
<path d="M24.2354 9.58743L25.4204 8.81897H31.304C31.4217 8.81897 31.5383 8.79568 31.647 8.75045C31.7558 8.70522 31.8546 8.63892 31.9378 8.55535C32.021 8.47178 32.0869 8.37257 32.1319 8.2634C32.1769 8.15423 32.1999 8.03723 32.1998 7.91911V0H24.2354V9.58743Z" fill="#007A9A"/>
<path d="M11.4684 14.4668H16.2084C16.3251 14.4668 16.4406 14.4899 16.5484 14.5346C16.6561 14.5794 16.7541 14.6451 16.8365 14.7279C16.919 14.8106 16.9845 14.9089 17.0291 15.017C17.0737 15.1252 17.0967 15.2411 17.0967 15.3581V22.1458H10.5801V15.3581C10.5801 15.2411 10.6031 15.1252 10.6477 15.017C10.6923 14.9089 10.7578 14.8106 10.8403 14.7279C10.9227 14.6451 11.0207 14.5794 11.1284 14.5346C11.2362 14.4899 11.3517 14.4668 11.4684 14.4668Z" fill="#80CDE4"/>
<path d="M17.7682 14.4668H22.5129C22.6296 14.4668 22.7451 14.4899 22.8529 14.5346C22.9606 14.5794 23.0586 14.6451 23.141 14.7279C23.2235 14.8106 23.289 14.9089 23.3336 15.017C23.3782 15.1252 23.4012 15.2411 23.4012 15.3581V22.1458H16.8799V15.3581C16.8799 15.2411 16.9029 15.1252 16.9475 15.017C16.9921 14.9089 17.0576 14.8106 17.1401 14.7279C17.2225 14.6451 17.3205 14.5794 17.4282 14.5346C17.536 14.4899 17.6515 14.4668 17.7682 14.4668Z" fill="#1FA1C2"/>
<path d="M0.567451 37.5742C-1.78751 46.379 3.82861 51.1203 5.9217 52.5382C6.3641 52.8389 6.88605 52.9998 7.42039 53.0004H26.5832C27.1175 53 27.6395 52.839 28.0819 52.5382C30.175 51.1203 35.793 46.379 33.4361 37.5742H0.567451Z" fill="#B6E4F1"/>
<path d="M18.1363 14.4668H15.8633V49.0386H18.1363V14.4668Z" fill="#007A9A"/>
</g>
<defs>
<clipPath id="clip0_1609_4">
<rect width="34" height="53" fill="white"/>
</clipPath>
</defs>
</svg>
