<svg width="48" height="48" viewBox="0 0 48 48" fill="none" xmlns="http://www.w3.org/2000/svg">
<path d="M11.5752 29.8122V33.8655L18.1619 34.8788L24.7486 33.8655C24.7486 33.3751 24.7486 30.3058 24.7486 29.8122L18.1619 28.7988L11.5752 29.8122Z" fill="#80CDE4"/>
<path d="M37.9214 29.8122L31.3347 28.7988L24.748 29.8122V33.8655L31.3347 34.8788L37.9214 33.8655C37.9214 33.3751 37.9214 30.3058 37.9214 29.8122Z" fill="#1FA1C2"/>
<path d="M23.6211 14.6132L22.1087 13.9042C22.1087 12.8406 22.1087 11.6234 22.1087 10.5599C21.3999 10.5599 20.7908 10.5599 20.082 10.5599C20.082 9.85108 20.082 9.242 20.082 8.5332H25.1487L26.162 11.0665L25.1487 13.5999L23.6211 14.6132Z" fill="#80CDE4"/>
<path d="M25.875 14.6132L27.3874 13.9042C27.3874 12.8406 27.3874 11.6234 27.3874 10.5599H29.4141C29.4141 9.85108 29.4141 9.242 29.4141 8.5332C28.3577 8.5332 25.8608 8.5332 24.748 8.5332V13.5999L25.875 14.6132Z" fill="#1FA1C2"/>
<path d="M11.3725 33.8691C9.80561 33.8691 8.53516 35.1394 8.53516 36.7065V38.9358H24.7485L25.7618 36.4025L24.7485 33.8691C24.0051 33.8691 12.116 33.8691 11.3725 33.8691Z" fill="#1FA1C2"/>
<path d="M40.9614 36.7065C40.9614 35.1395 39.6911 33.8691 38.1241 33.8691C37.3806 33.8691 25.4916 33.8691 24.748 33.8691V38.9358H40.9614V37.8211V36.7065Z" fill="#007A9A"/>
<path d="M9.54785 28.7977V29.811H24.7479L25.7612 21.7043L24.7479 13.5977C16.3533 13.5977 9.54785 20.4027 9.54785 28.7977Z" fill="white"/>
<path d="M39.9481 28.7977C39.9481 20.4031 33.143 13.5977 24.748 13.5977V29.811H39.9481C39.9481 29.4566 39.9481 29.1521 39.9481 28.7977Z" fill="#80CDE4"/>
</svg>
