<svg width="48" height="48" viewBox="0 0 48 48" fill="none" xmlns="http://www.w3.org/2000/svg">
<g clip-path="url(#clip0_1405_2001)">
<path d="M8.53418 21.3418H17.7175V24.9668H8.53418V21.3418Z" fill="white"/>
<path d="M8.53418 26.7793H17.7175V39.4668H8.53418V26.7793Z" fill="#1FA1C2"/>
<path d="M28.5928 14.0918C22.5959 14.0918 17.7178 18.97 17.7178 24.9668C17.7178 30.9636 22.5959 35.8418 28.5928 35.8418C34.5896 35.8418 39.4678 30.9636 39.4678 24.9668C39.4678 18.97 34.5896 14.0918 28.5928 14.0918ZM21.6083 27.0448L30.6708 17.9823L31.9523 19.2638L22.8898 28.3263L21.6083 27.0448ZM28.3272 30.1388L27.0457 28.8573L32.4832 23.4198L33.7647 24.7013L28.3272 30.1388Z" fill="#1FA1C2"/>
<path d="M15.9053 19.529V13.0645C15.9053 10.566 13.8733 8.5332 11.374 8.5332H10.4678V19.529H15.9053Z" fill="#007A9A"/>
<path d="M21.3428 39.4668C19.3444 39.4668 17.7178 37.841 17.7178 35.8418H39.4678C39.4678 37.841 37.8411 39.4668 35.8428 39.4668H21.3428Z" fill="#007A9A"/>
</g>
<defs>
<clipPath id="clip0_1405_2001">
<rect width="30.9333" height="30.9333" fill="white" transform="translate(8.53418 8.5332)"/>
</clipPath>
</defs>
</svg>
