<svg width="48" height="48" viewBox="0 0 48 48" fill="none" xmlns="http://www.w3.org/2000/svg">
<g clip-path="url(#clip0_1405_2023)">
<path d="M38.7572 13.7988L36.4136 6.76758L22.5623 6.76781L20.2188 13.7991L38.7572 13.7988Z" fill="#B6E4F1"/>
<path d="M20.0342 31.5332H14.1748V38.5644H20.0342V31.5332Z" fill="#1FA1C2"/>
<path d="M38.9404 31.5332V38.5644H44.7998V33.877L38.9404 31.5332Z" fill="#007A9A"/>
<path d="M31.9727 26.8457L35.4248 33.877H44.7998V28.0176L31.9727 26.8457Z" fill="#B6E4F1"/>
<path d="M41.9133 14.4798C41.3479 12.7837 39.5045 11.4551 37.7166 11.4551L21.2579 11.4553C19.47 11.4553 17.6267 12.7841 17.0613 14.4802L14.1748 23.1402V28.0179H44.7998V23.1399L41.9133 14.4798Z" fill="#1FA1C2"/>
<path d="M39.6898 15.221C39.4417 14.4767 38.5012 13.7988 37.7167 13.7988L29.4873 13.799L24.7998 17.9787L29.4873 22.1585H42.0021L39.6898 15.221Z" fill="white"/>
<path d="M21.2591 13.7989C20.4745 13.7989 19.534 14.4768 19.2859 15.2212L16.9736 22.1584H29.4884V13.7988L21.2591 13.7989Z" fill="white"/>
<path d="M27.0379 6.76758L20.1123 6.76773L15.4248 13.799L29.3815 13.7988L27.0379 6.76758Z" fill="#80CDE4"/>
<path d="M13.1873 6.76766L10.8438 13.799L20.113 13.7988V6.76758L13.1873 6.76766Z" fill="#B6E4F1"/>
<path d="M4.7998 38.5644H10.6592V31.5332L4.7998 33.877V38.5644Z" fill="#007A9A"/>
<path d="M29.5654 31.5332V38.5644H35.4248V33.877L29.5654 31.5332Z" fill="#007A9A"/>
<path d="M25.7227 26.8457L26.0498 33.877H35.4248V28.0176L25.7227 26.8457Z" fill="#80CDE4"/>
<path d="M28.0662 26.8457L26.0498 33.877H20.1123L15.4248 26.8457H28.0662Z" fill="#B6E4F1"/>
<path d="M4.7998 28.0176V33.877H14.1748L14.502 26.8457L4.7998 28.0176Z" fill="#B6E4F1"/>
<path d="M12.1582 26.8457L14.1746 33.877H20.1121V26.8457H12.1582Z" fill="#80CDE4"/>
<path d="M32.5383 14.4798C31.9729 12.7837 30.1295 11.4551 28.3416 11.4551L20.1123 11.4552L15.4248 19.7366L20.1123 28.0179H35.4248V23.1399L32.5383 14.4798Z" fill="#007A9A"/>
<path d="M20.1123 11.4551L11.8829 11.4552C10.095 11.4552 8.25168 12.784 7.68629 14.4801L4.7998 23.1401V28.0177H20.1123V11.4551Z" fill="#1FA1C2"/>
<path d="M30.3148 15.221C30.0667 14.4767 29.1262 13.7988 28.3417 13.7988L20.1123 13.799L15.4248 17.9787L20.1123 22.1585H32.6271L30.3148 15.221Z" fill="#AAEFFD"/>
<path d="M11.8841 13.7989C11.0995 13.7989 10.159 14.4768 9.9109 15.2212L7.59863 22.1584H20.1134V13.7988L11.8841 13.7989Z" fill="white"/>
</g>
<defs>
<clipPath id="clip0_1405_2023">
<rect width="40" height="40" fill="white" transform="translate(4.7998 2.66602)"/>
</clipPath>
</defs>
</svg>
