<svg width="49" height="49" viewBox="0 0 49 49" fill="none" xmlns="http://www.w3.org/2000/svg">
<g clip-path="url(#clip0_1405_1988)">
<path d="M35.4786 31.0185H31.1497C30.3959 31.0185 29.7842 30.4131 29.7842 29.6671C29.7842 28.9211 30.3959 28.3157 31.1497 28.3157H35.4786C36.216 28.3157 36.8974 28.0373 37.3999 27.5305C37.9284 27.0169 38.2097 26.3426 38.2097 25.6128C38.2097 24.1221 36.9848 22.9099 35.4786 22.9099H32.7474C31.9937 22.9099 31.3819 22.3045 31.3819 21.5585C31.3819 20.8125 31.9937 20.207 32.7474 20.207H35.4786C38.491 20.207 40.9408 22.6315 40.9408 25.6128C40.9408 27.0737 40.3686 28.4319 39.3308 29.4428C38.3271 30.4523 36.9547 31.0185 35.4786 31.0185Z" fill="#80CDE4"/>
<path d="M40.9408 25.6113H38.2097C38.2097 26.3411 37.9284 27.0155 37.3999 27.529C36.8974 28.0358 36.216 28.3142 35.4786 28.3142H31.1497C30.3959 28.3142 29.7842 28.9197 29.7842 29.6656C29.7842 30.4116 30.3959 31.0171 31.1497 31.0171H35.4786C36.9547 31.0171 38.3271 30.4508 39.3308 29.4413C40.3686 28.4304 40.9408 27.0722 40.9408 25.6113Z" fill="#007A9A"/>
<path d="M21.8222 36.0862C15.0463 36.0862 9.53223 30.6291 9.53223 23.9233V18.8554C9.53223 18.2959 9.99105 17.8418 10.5564 17.8418H33.0881C33.6534 17.8418 34.1123 18.2959 34.1123 18.8554V23.9233C34.1123 26.1288 33.51 28.2952 32.3698 30.1858L32.2742 30.3196C30.0511 33.8807 26.0609 36.0862 21.8222 36.0862Z" fill="#B6E4F1"/>
<path d="M31.7229 40.142H11.9223C9.85072 40.142 8.16699 38.4757 8.16699 36.4256V35.0741C8.16699 34.5146 8.62582 34.0605 9.19116 34.0605H34.454C35.0193 34.0605 35.4781 34.5146 35.4781 35.0741V36.4256C35.4781 38.4757 33.7944 40.142 31.7229 40.142Z" fill="#80CDE4"/>
<path d="M21.8222 17.8418H10.5564C9.99105 17.8418 9.53223 18.2959 9.53223 18.8554V23.9233C9.53223 28.1492 11.7212 31.8778 15.0354 34.0591H21.8222V17.8418Z" fill="#007A9A"/>
<path d="M21.8226 34.0605H15.0357H9.19116C8.62582 34.0605 8.16699 34.5146 8.16699 35.0741V36.4256C8.16699 38.4757 9.85072 40.142 11.9223 40.142H21.8226V34.0605Z" fill="#B6E4F1"/>
</g>
<rect width="2.08441" height="12.5065" transform="matrix(-1 8.42937e-08 8.42937e-08 1 25.4834 2.69336)" fill="white"/>
<rect width="2.08441" height="8.33765" transform="matrix(-1 8.42937e-08 8.42937e-08 1 20.2715 6.79102)" fill="white"/>
<defs>
<clipPath id="clip0_1405_1988">
<rect width="32.7734" height="22.8243" fill="white" transform="translate(8.16699 17.3164)"/>
</clipPath>
</defs>
</svg>
