<svg width="40" height="40" viewBox="0 0 40 40" fill="none" xmlns="http://www.w3.org/2000/svg">
<g clip-path="url(#clip0_1405_1960)">
<path d="M26.6729 6.39648L33.0003 0.06906L36.2608 3.32956L29.9334 9.65698L26.6729 6.39648Z" fill="#1FA1C2"/>
<path d="M28.3047 8.02539L34.6321 1.69797L36.2618 3.32767L29.9344 9.6551L28.3047 8.02539Z" fill="#80CDE4"/>
<path d="M12.7698 23.5613C11.4193 22.2097 11.4216 20.0135 12.7698 18.6642L15.1997 16.1992L20.1318 21.1291L17.6612 23.5658C16.3277 24.8994 14.1319 24.9166 12.7698 23.5613Z" fill="white"/>
<path d="M30.2713 34.9052H19.9238V32.5927C23.7494 32.5927 26.8613 29.4808 26.8613 25.6552C26.8613 23.2242 25.6147 21.0077 23.5281 19.7261L22.2793 18.9594L27.3469 13.8906L28.1463 14.4789C31.685 17.0805 33.7988 21.2583 33.7988 25.6552C33.7988 31.361 30.4069 34.6739 30.2713 34.9052Z" fill="#80CDE4"/>
<path d="M10.6738 29.123H17.6113V33.748H10.6738V29.123Z" fill="#1FA1C2"/>
<path d="M3.73633 27.9668H19.9238V30.2793H3.73633V27.9668Z" fill="white"/>
<path d="M17.661 23.5651L20.1316 21.1284L17.6661 18.6641L12.7695 23.5606C14.1315 24.9158 16.3275 24.8986 17.661 23.5651Z" fill="#1FA1C2"/>
<path d="M25.0348 3.10742L12.4316 15.7336L20.5947 23.8968L33.221 11.2937L25.0348 3.10742Z" fill="#B6E4F1"/>
<path d="M20.5945 23.897L33.2209 11.2938L29.1284 7.20117L16.5137 19.8159L20.5945 23.897Z" fill="#1FA1C2"/>
<path d="M10.3076 14.5703L11.9424 12.9355L23.3874 24.3806L21.7527 26.0154L10.3076 14.5703Z" fill="#1FA1C2"/>
<path d="M16.0312 20.2949L17.666 18.6601L23.3877 24.3818L21.7529 26.0166L16.0312 20.2949Z" fill="#80CDE4"/>
<path d="M33.7988 38.373H6.04883V36.0605C6.04883 34.1478 7.60483 32.5918 9.51758 32.5918H30.3301C32.2428 32.5918 33.7988 34.1478 33.7988 36.0605V38.373Z" fill="#80CDE4"/>
<path d="M30.3301 32.5918H19.9238V38.373H33.7988V36.0605C33.7988 34.1478 32.2428 32.5918 30.3301 32.5918Z" fill="#B6E4F1"/>
<path d="M3.73633 37.2168H36.1113V39.5293H3.73633V37.2168Z" fill="#1FA1C2"/>
<path d="M19.9238 37.2168H36.1113V39.5293H19.9238V37.2168Z" fill="#80CDE4"/>
</g>
<defs>
<clipPath id="clip0_1405_1960">
<rect width="39.4667" height="39.4667" fill="white" transform="translate(0.267578 0.0644531)"/>
</clipPath>
</defs>
</svg>
